<?xml version="1.0" encoding="UTF-8"?>
<svg version="1.1" xmlns="http://www.w3.org/2000/svg" width="1024" height="256">
<path d="M0 0 C10.56 0 21.12 0 32 0 C32 10.56 32 21.12 32 32 C37.28 32 42.56 32 48 32 C48 37.28 48 42.56 48 48 C53.28 48 58.56 48 64 48 C64 53.28 64 58.56 64 64 C69.28 64 74.56 64 80 64 C80 69.28 80 74.56 80 80 C85.28 80 90.56 80 96 80 C96 90.56 96 101.12 96 112 C101.28 112 106.56 112 112 112 C112 127.84 112 143.68 112 160 C106.72 160 101.44 160 96 160 C96 170.56 96 181.12 96 192 C90.72 192 85.44 192 80 192 C80 202.56 80 213.12 80 224 C74.72 224 69.44 224 64 224 C64 229.28 64 234.56 64 240 C58.72 240 53.44 240 48 240 C48 234.72 48 229.44 48 224 C42.72 224 37.44 224 32 224 C32 218.72 32 213.44 32 208 C26.72 208 21.44 208 16 208 C16 202.72 16 197.44 16 192 C21.28 192 26.56 192 32 192 C32 186.72 32 181.44 32 176 C37.28 176 42.56 176 48 176 C48 165.44 48 154.88 48 144 C42.72 144 37.44 144 32 144 C32 149.28 32 154.56 32 160 C21.44 160 10.88 160 0 160 C0 154.72 0 149.44 0 144 C-10.56 144 -21.12 144 -32 144 C-32 149.28 -32 154.56 -32 160 C-37.28 160 -42.56 160 -48 160 C-48 154.72 -48 149.44 -48 144 C-53.28 144 -58.56 144 -64 144 C-64 138.72 -64 133.44 -64 128 C-79.84 128 -95.68 128 -112 128 C-112 122.72 -112 117.44 -112 112 C-117.28 112 -122.56 112 -128 112 C-128 106.72 -128 101.44 -128 96 C-122.72 96 -117.44 96 -112 96 C-112 90.72 -112 85.44 -112 80 C-106.72 80 -101.44 80 -96 80 C-96 74.72 -96 69.44 -96 64 C-90.72 64 -85.44 64 -80 64 C-80 58.72 -80 53.44 -80 48 C-74.72 48 -69.44 48 -64 48 C-64 42.72 -64 37.44 -64 32 C-48.16 32 -32.32 32 -16 32 C-16 26.72 -16 21.44 -16 16 C-10.72 16 -5.44 16 0 16 C0 10.72 0 5.44 0 0 Z " fill="#02CBDA" transform="translate(190,16)"/>
<path d="M0 0 C10.56 0 21.12 0 32 0 C32 10.56 32 21.12 32 32 C37.28 32 42.56 32 48 32 C48 37.28 48 42.56 48 48 C53.28 48 58.56 48 64 48 C64 53.28 64 58.56 64 64 C37.6 64 11.2 64 -16 64 C-16 69.28 -16 74.56 -16 80 C-21.28 80 -26.56 80 -32 80 C-32 74.72 -32 69.44 -32 64 C-42.56 64 -53.12 64 -64 64 C-64 69.28 -64 74.56 -64 80 C-58.72 80 -53.44 80 -48 80 C-48 85.28 -48 90.56 -48 96 C-63.84 96 -79.68 96 -96 96 C-96 101.28 -96 106.56 -96 112 C-69.6 112 -43.2 112 -16 112 C-16 117.28 -16 122.56 -16 128 C-10.72 128 -5.44 128 0 128 C0 133.28 0 138.56 0 144 C-10.56 144 -21.12 144 -32 144 C-32 149.28 -32 154.56 -32 160 C-37.28 160 -42.56 160 -48 160 C-48 154.72 -48 149.44 -48 144 C-53.28 144 -58.56 144 -64 144 C-64 138.72 -64 133.44 -64 128 C-79.84 128 -95.68 128 -112 128 C-112 122.72 -112 117.44 -112 112 C-117.28 112 -122.56 112 -128 112 C-128 106.72 -128 101.44 -128 96 C-122.72 96 -117.44 96 -112 96 C-112 90.72 -112 85.44 -112 80 C-106.72 80 -101.44 80 -96 80 C-96 74.72 -96 69.44 -96 64 C-90.72 64 -85.44 64 -80 64 C-80 58.72 -80 53.44 -80 48 C-74.72 48 -69.44 48 -64 48 C-64 42.72 -64 37.44 -64 32 C-48.16 32 -32.32 32 -16 32 C-16 26.72 -16 21.44 -16 16 C-10.72 16 -5.44 16 0 16 C0 10.72 0 5.44 0 0 Z " fill="#02C0D0" transform="translate(190,16)"/>
<path d="M0 0 C10.56 0 21.12 0 32 0 C32 5.28 32 10.56 32 16 C37.28 16 42.56 16 48 16 C48 10.72 48 5.44 48 0 C58.56 0 69.12 0 80 0 C80 5.28 80 10.56 80 16 C85.28 16 90.56 16 96 16 C96 31.84 96 47.68 96 64 C101.28 64 106.56 64 112 64 C112 69.28 112 74.56 112 80 C106.72 80 101.44 80 96 80 C96 85.28 96 90.56 96 96 C85.44 96 74.88 96 64 96 C64 85.44 64 74.88 64 64 C58.72 64 53.44 64 48 64 C48 58.72 48 53.44 48 48 C21.6 48 -4.8 48 -32 48 C-32 42.72 -32 37.44 -32 32 C-16.16 32 -0.32 32 16 32 C16 26.72 16 21.44 16 16 C10.72 16 5.44 16 0 16 C0 10.72 0 5.44 0 0 Z " fill="#02CBDA" transform="translate(126,80)"/>
<path d="M0 0 C5.28 0 10.56 0 16 0 C16 10.56 16 21.12 16 32 C10.72 32 5.44 32 0 32 C0 37.28 0 42.56 0 48 C26.4 48 52.8 48 80 48 C80 53.28 80 58.56 80 64 C85.28 64 90.56 64 96 64 C96 69.28 96 74.56 96 80 C85.44 80 74.88 80 64 80 C64 85.28 64 90.56 64 96 C58.72 96 53.44 96 48 96 C48 90.72 48 85.44 48 80 C42.72 80 37.44 80 32 80 C32 74.72 32 69.44 32 64 C16.16 64 0.32 64 -16 64 C-16 58.72 -16 53.44 -16 48 C-21.28 48 -26.56 48 -32 48 C-32 42.72 -32 37.44 -32 32 C-26.72 32 -21.44 32 -16 32 C-16 26.72 -16 21.44 -16 16 C-10.72 16 -5.44 16 0 16 C0 10.72 0 5.44 0 0 Z " fill="#000000" transform="translate(94,80)"/>
<path d="M0 0 C5.28 0 10.56 0 16 0 C16 5.28 16 10.56 16 16 C21.28 16 26.56 16 32 16 C32 26.56 32 37.12 32 48 C37.28 48 42.56 48 48 48 C48 63.84 48 79.68 48 96 C42.72 96 37.44 96 32 96 C32 106.56 32 117.12 32 128 C26.72 128 21.44 128 16 128 C16 101.6 16 75.2 16 48 C10.72 48 5.44 48 0 48 C0 32.16 0 16.32 0 0 Z " fill="#02B7C7" transform="translate(254,80)"/>
<path d="M0 0 C5.28 0 10.56 0 16 0 C16 15.84 16 31.68 16 48 C21.28 48 26.56 48 32 48 C32 58.56 32 69.12 32 80 C26.72 80 21.44 80 16 80 C16 85.28 16 90.56 16 96 C10.72 96 5.44 96 0 96 C0 90.72 0 85.44 0 80 C-5.28 80 -10.56 80 -16 80 C-16 74.72 -16 69.44 -16 64 C-21.28 64 -26.56 64 -32 64 C-32 58.72 -32 53.44 -32 48 C-26.72 48 -21.44 48 -16 48 C-16 42.72 -16 37.44 -16 32 C-10.72 32 -5.44 32 0 32 C0 21.44 0 10.88 0 0 Z " fill="#02B5C5" transform="translate(238,160)"/>
<path d="M0 0 C4.11542049 0.22129221 6.76448698 0.76700733 9.91455078 3.51953125 C14.30369675 8.80474592 17.68092636 14.72620224 21.04589844 20.69677734 C23.49756137 24.94058738 26.27921133 28.92077725 29.10351562 32.921875 C29.98725167 34.2090018 30.87015997 35.49669762 31.75195312 36.78515625 C33.45741068 39.39622897 33.45741068 39.39622897 34.72851562 40.609375 C35.05851563 31.699375 35.38851562 22.789375 35.72851562 13.609375 C32.42851563 13.279375 29.12851562 12.949375 25.72851562 12.609375 C23.72851562 10.609375 23.72851562 10.609375 23.47851562 7.109375 C23.72851562 3.609375 23.72851562 3.609375 25.72851562 1.609375 C28.40234375 1.35058594 28.40234375 1.35058594 31.75976562 1.34375 C32.96246094 1.34117187 34.16515625 1.33859375 35.40429688 1.3359375 C36.66628906 1.34367188 37.92828125 1.35140625 39.22851562 1.359375 C40.49050781 1.35164062 41.7525 1.34390625 43.05273438 1.3359375 C44.85677734 1.33980469 44.85677734 1.33980469 46.69726562 1.34375 C47.80521484 1.34600586 48.91316406 1.34826172 50.0546875 1.35058594 C52.72851562 1.609375 52.72851562 1.609375 54.72851562 3.609375 C54.97851562 7.109375 54.97851562 7.109375 54.72851562 10.609375 C54.06851563 11.269375 53.40851563 11.929375 52.72851562 12.609375 C50.74851562 12.609375 48.76851562 12.609375 46.72851562 12.609375 C46.72851562 29.769375 46.72851562 46.929375 46.72851562 64.609375 C35.72851562 64.609375 35.72851562 64.609375 33.29101562 62.546875 C32.77539062 61.5775 32.25976562 60.608125 31.72851562 59.609375 C31.09945312 58.51625 30.47039063 57.423125 29.82226562 56.296875 C29.49226562 55.70132813 29.16226563 55.10578125 28.82226562 54.4921875 C26.82932318 51.06147943 24.5069132 47.85436549 22.22851562 44.609375 C17.64121036 37.99866621 13.19324949 31.3064758 8.72851562 24.609375 C8.39851562 34.179375 8.06851563 43.749375 7.72851562 53.609375 C11.02851562 53.609375 14.32851563 53.609375 17.72851562 53.609375 C19.72851562 55.609375 19.72851562 55.609375 19.97851562 59.109375 C19.72851562 62.609375 19.72851562 62.609375 17.72851562 64.609375 C15.0546875 64.86816406 15.0546875 64.86816406 11.69726562 64.875 C10.49457031 64.87757813 9.291875 64.88015625 8.05273438 64.8828125 C6.79074219 64.87507813 5.52875 64.86734375 4.22851562 64.859375 C2.96652344 64.86710937 1.70453125 64.87484375 0.40429688 64.8828125 C-0.79839844 64.88023437 -2.00109375 64.87765625 -3.24023438 64.875 C-4.34818359 64.87274414 -5.45613281 64.87048828 -6.59765625 64.86816406 C-9.27148438 64.609375 -9.27148438 64.609375 -11.27148438 62.609375 C-11.52148438 59.109375 -11.52148438 59.109375 -11.27148438 55.609375 C-10.61148438 54.949375 -9.95148437 54.289375 -9.27148438 53.609375 C-7.29148437 53.609375 -5.31148437 53.609375 -3.27148438 53.609375 C-3.27148438 40.409375 -3.27148438 27.209375 -3.27148438 13.609375 C-5.91148437 13.279375 -8.55148437 12.949375 -11.27148438 12.609375 C-13.27148438 10.609375 -13.27148438 10.609375 -13.52148438 7.109375 C-12.99043111 -0.32537069 -6.09289496 0.25790032 0 0 Z " fill="#000000" transform="translate(564.271484375,156.390625)"/>
<path d="M0 0 C4.11542049 0.22129221 6.76448698 0.76700733 9.91455078 3.51953125 C14.30369675 8.80474592 17.68092636 14.72620224 21.04589844 20.69677734 C23.49756137 24.94058738 26.27921133 28.92077725 29.10351562 32.921875 C29.98725167 34.2090018 30.87015997 35.49669762 31.75195312 36.78515625 C33.45741068 39.39622897 33.45741068 39.39622897 34.72851562 40.609375 C35.05851563 31.699375 35.38851562 22.789375 35.72851562 13.609375 C32.42851563 13.279375 29.12851562 12.949375 25.72851562 12.609375 C23.72851562 10.609375 23.72851562 10.609375 23.47851562 7.109375 C23.72851562 3.609375 23.72851562 3.609375 25.72851562 1.609375 C28.40234375 1.35058594 28.40234375 1.35058594 31.75976562 1.34375 C32.96246094 1.34117188 34.16515625 1.33859375 35.40429688 1.3359375 C36.66628906 1.34367187 37.92828125 1.35140625 39.22851562 1.359375 C40.49050781 1.35164063 41.7525 1.34390625 43.05273438 1.3359375 C44.85677734 1.33980469 44.85677734 1.33980469 46.69726562 1.34375 C47.80521484 1.34600586 48.91316406 1.34826172 50.0546875 1.35058594 C52.72851562 1.609375 52.72851562 1.609375 54.72851562 3.609375 C54.97851562 7.109375 54.97851562 7.109375 54.72851562 10.609375 C54.06851563 11.269375 53.40851563 11.929375 52.72851562 12.609375 C50.74851562 12.609375 48.76851562 12.609375 46.72851562 12.609375 C46.72851562 29.769375 46.72851562 46.929375 46.72851562 64.609375 C35.72851562 64.609375 35.72851562 64.609375 33.29101562 62.546875 C32.77539062 61.5775 32.25976562 60.608125 31.72851562 59.609375 C31.09945312 58.51625 30.47039063 57.423125 29.82226562 56.296875 C29.49226562 55.70132813 29.16226563 55.10578125 28.82226562 54.4921875 C26.82932318 51.06147943 24.5069132 47.85436549 22.22851562 44.609375 C17.64121036 37.99866621 13.19324949 31.3064758 8.72851562 24.609375 C8.39851562 34.179375 8.06851563 43.749375 7.72851562 53.609375 C11.02851562 53.609375 14.32851563 53.609375 17.72851562 53.609375 C19.72851562 55.609375 19.72851562 55.609375 19.97851562 59.109375 C19.72851562 62.609375 19.72851562 62.609375 17.72851562 64.609375 C15.0546875 64.86816406 15.0546875 64.86816406 11.69726562 64.875 C10.49457031 64.87757812 9.291875 64.88015625 8.05273438 64.8828125 C6.79074219 64.87507813 5.52875 64.86734375 4.22851562 64.859375 C2.96652344 64.86710937 1.70453125 64.87484375 0.40429688 64.8828125 C-0.79839844 64.88023438 -2.00109375 64.87765625 -3.24023438 64.875 C-4.34818359 64.87274414 -5.45613281 64.87048828 -6.59765625 64.86816406 C-9.27148438 64.609375 -9.27148438 64.609375 -11.27148438 62.609375 C-11.52148438 59.109375 -11.52148438 59.109375 -11.27148438 55.609375 C-10.61148438 54.949375 -9.95148437 54.289375 -9.27148438 53.609375 C-7.29148437 53.609375 -5.31148437 53.609375 -3.27148438 53.609375 C-3.27148438 40.409375 -3.27148438 27.209375 -3.27148438 13.609375 C-5.91148437 13.279375 -8.55148437 12.949375 -11.27148438 12.609375 C-13.27148438 10.609375 -13.27148438 10.609375 -13.52148438 7.109375 C-12.99043111 -0.32537069 -6.09289496 0.25790032 0 0 Z " fill="#000000" transform="translate(828.271484375,32.390625)"/>
<path d="M0 0 C0.97262787 0.00444122 1.94525574 0.00888245 2.94735718 0.01345825 C4.59884262 0.01368484 4.59884262 0.01368484 6.28369141 0.01391602 C7.4764267 0.02423859 8.66916199 0.03456116 9.89804077 0.04519653 C11.11599335 0.04802643 12.33394592 0.05085632 13.58880615 0.05377197 C17.4914621 0.06499647 21.3938913 0.09010531 25.29647827 0.11550903 C27.93709997 0.12553589 30.57772524 0.13466225 33.21835327 0.14285278 C39.70280607 0.16494322 46.18712598 0.19844311 52.67147827 0.24050903 C52.72934495 4.03211201 52.76502881 7.82360214 52.79647827 11.61550903 C52.81323608 12.69574341 52.8299939 13.77597778 52.84725952 14.88894653 C52.85692749 16.43582153 52.85692749 16.43582153 52.86679077 18.01394653 C52.88250122 19.44359741 52.88250122 19.44359741 52.89852905 20.90213013 C52.67147827 23.24050903 52.67147827 23.24050903 50.67147827 25.24050903 C47.17147827 25.49050903 47.17147827 25.49050903 43.67147827 25.24050903 C43.01147827 24.58050903 42.35147827 23.92050903 41.67147827 23.24050903 C41.67147827 19.61050903 41.67147827 15.98050903 41.67147827 12.24050903 C33.42147827 12.24050903 25.17147827 12.24050903 16.67147827 12.24050903 C16.67147827 16.53050903 16.67147827 20.82050903 16.67147827 25.24050903 C19.64147827 25.24050903 22.61147827 25.24050903 25.67147827 25.24050903 C25.63022827 24.29175903 25.58897827 23.34300903 25.54647827 22.36550903 C25.67147827 19.24050903 25.67147827 19.24050903 27.67147827 17.24050903 C31.17147827 16.99050903 31.17147827 16.99050903 34.67147827 17.24050903 C37.24136508 19.81039584 36.92854602 20.82960956 36.93710327 24.39675903 C36.94097046 25.93009888 36.94097046 25.93009888 36.94491577 27.49441528 C36.9371814 28.56562622 36.92944702 29.63683716 36.92147827 30.74050903 C36.93307983 32.34732544 36.93307983 32.34732544 36.94491577 33.98660278 C36.94233765 35.00882935 36.93975952 36.03105591 36.93710327 37.08425903 C36.93484741 38.02463013 36.93259155 38.96500122 36.93026733 39.93386841 C36.67147827 42.24050903 36.67147827 42.24050903 34.67147827 44.24050903 C31.17147827 44.49050903 31.17147827 44.49050903 27.67147827 44.24050903 C25.67147827 42.24050903 25.67147827 42.24050903 25.54647827 39.61550903 C25.58772827 38.83175903 25.62897827 38.04800903 25.67147827 37.24050903 C22.70147827 37.24050903 19.73147827 37.24050903 16.67147827 37.24050903 C16.67147827 42.19050903 16.67147827 47.14050903 16.67147827 52.24050903 C25.58147827 52.24050903 34.49147827 52.24050903 43.67147827 52.24050903 C43.67147827 48.28050903 43.67147827 44.32050903 43.67147827 40.24050903 C45.67147827 38.24050903 45.67147827 38.24050903 49.17147827 37.99050903 C52.67147827 38.24050903 52.67147827 38.24050903 54.67147827 40.24050903 C54.89852905 42.57888794 54.89852905 42.57888794 54.86679077 45.46707153 C54.86034546 46.49832153 54.85390015 47.52957153 54.84725952 48.59207153 C54.83050171 49.67230591 54.8137439 50.75254028 54.79647827 51.86550903 C54.78745483 52.95347778 54.7784314 54.04144653 54.76913452 55.16238403 C54.74551236 57.85531055 54.71257383 60.54780159 54.67147827 63.24050903 C47.27417068 63.28680322 39.8768942 63.3223633 32.47947121 63.34413338 C29.04472368 63.35458074 25.6100751 63.36875709 22.17538452 63.39138794 C18.22878189 63.41722966 14.28221964 63.42697396 10.33554077 63.43582153 C9.09905792 63.4461441 7.86257507 63.45646667 6.58862305 63.46710205 C5.44759125 63.46725311 4.30655945 63.46740417 3.13095093 63.46755981 C2.12279327 63.47200104 1.11463562 63.47644226 0.07592773 63.48101807 C-2.32852173 63.24050903 -2.32852173 63.24050903 -4.32852173 61.24050903 C-4.57852173 57.74050903 -4.57852173 57.74050903 -4.32852173 54.24050903 C-3.66852173 53.58050903 -3.00852173 52.92050903 -2.32852173 52.24050903 C0.31147827 52.24050903 2.95147827 52.24050903 5.67147827 52.24050903 C5.67147827 39.04050903 5.67147827 25.84050903 5.67147827 12.24050903 C3.03147827 11.91050903 0.39147827 11.58050903 -2.32852173 11.24050903 C-4.32852173 9.24050903 -4.32852173 9.24050903 -4.57852173 5.74050903 C-4.30040125 1.8468224 -4.04760752 0.41807047 0 0 Z " fill="#000000" transform="translate(756.3285217285156,157.75949096679688)"/>
<path d="M0 0 C0.86603851 -0.0066568 1.73207703 -0.0133136 2.62435913 -0.02017212 C4.46195347 -0.03031202 6.29958474 -0.03498873 8.13720703 -0.03466797 C10.9293441 -0.03901333 13.71986452 -0.0752397 16.51171875 -0.11328125 C18.29947379 -0.11915497 20.0872363 -0.12312064 21.875 -0.125 C22.70238678 -0.13937103 23.52977356 -0.15374207 24.38223267 -0.16854858 C31.65068319 -0.11220401 36.73981307 2.078438 42.2109375 6.8359375 C46.35299284 11.70894378 46.72841567 15.36518386 46.578125 21.65234375 C46.07432454 27.23477784 43.72819161 30.15147592 39.6484375 33.7109375 C38.55232069 34.59600076 37.4507927 35.47459732 36.3359375 36.3359375 C36.78324219 36.76003906 37.23054687 37.18414062 37.69140625 37.62109375 C41.78342627 41.59096392 45.23507603 45.54369705 48.3359375 50.3359375 C48.3359375 50.9959375 48.3359375 51.6559375 48.3359375 52.3359375 C49.2846875 52.2946875 50.2334375 52.2534375 51.2109375 52.2109375 C54.3359375 52.3359375 54.3359375 52.3359375 56.3359375 54.3359375 C56.5859375 57.8359375 56.5859375 57.8359375 56.3359375 61.3359375 C53.6655793 64.0062957 52.00849588 63.9226172 48.2734375 64.2109375 C43.82469739 64.16674472 42.00047732 63.94656922 38.6875 60.90234375 C36.4126791 57.79290426 34.3596158 54.61314932 32.3359375 51.3359375 C27.05415459 44.26038834 27.05415459 44.26038834 19.3203125 40.82421875 C16.32552083 40.66145833 13.33072917 40.49869792 10.3359375 40.3359375 C10.3359375 44.2959375 10.3359375 48.2559375 10.3359375 52.3359375 C12.875 52.27083333 15.4140625 52.20572917 17.953125 52.140625 C20.3359375 52.3359375 20.3359375 52.3359375 22.3359375 54.3359375 C22.5859375 57.8359375 22.5859375 57.8359375 22.3359375 61.3359375 C19.53974618 64.13212882 17.77709037 63.59416139 13.8671875 63.6015625 C12.57425781 63.60414063 11.28132812 63.60671875 9.94921875 63.609375 C9.27455566 63.60518555 8.59989258 63.60099609 7.90478516 63.59667969 C5.84377593 63.5859782 3.78363831 63.59657693 1.72265625 63.609375 C0.42972656 63.60679687 -0.86320313 63.60421875 -2.1953125 63.6015625 C-3.38705078 63.59930664 -4.57878906 63.59705078 -5.80664062 63.59472656 C-8.6640625 63.3359375 -8.6640625 63.3359375 -10.6640625 61.3359375 C-10.9140625 57.8359375 -10.9140625 57.8359375 -10.6640625 54.3359375 C-10.0040625 53.6759375 -9.3440625 53.0159375 -8.6640625 52.3359375 C-6.0240625 52.3359375 -3.3840625 52.3359375 -0.6640625 52.3359375 C-0.6640625 39.1359375 -0.6640625 25.9359375 -0.6640625 12.3359375 C-3.3040625 12.0059375 -5.9440625 11.6759375 -8.6640625 11.3359375 C-10.6640625 9.3359375 -10.6640625 9.3359375 -10.9140625 5.8359375 C-10.4140426 -1.16434116 -5.73181174 0.01519536 0 0 Z M10.3359375 12.3359375 C10.3359375 17.6159375 10.3359375 22.8959375 10.3359375 28.3359375 C19.47289758 28.62599972 26.93374834 28.02992916 34.3359375 22.3359375 C34.23185833 18.93513173 34.23185833 18.93513173 33.3359375 15.3359375 C28.98817578 11.5402725 24.47047861 11.98077009 19.0234375 12.1484375 C17.76950195 12.16874023 17.76950195 12.16874023 16.49023438 12.18945312 C14.43852252 12.22462533 12.38714475 12.27842702 10.3359375 12.3359375 Z " fill="#000000" transform="translate(828.6640625,157.6640625)"/>
<path d="M0 0 C1.53333984 -0.00386719 1.53333984 -0.00386719 3.09765625 -0.0078125 C4.16886719 -0.00007813 5.24007812 0.00765625 6.34375 0.015625 C7.95056641 0.00402344 7.95056641 0.00402344 9.58984375 -0.0078125 C10.61207031 -0.00523438 11.63429688 -0.00265625 12.6875 0 C13.62787109 0.00225586 14.56824219 0.00451172 15.53710938 0.00683594 C17.84375 0.265625 17.84375 0.265625 19.84375 2.265625 C20.09375 5.765625 20.09375 5.765625 19.84375 9.265625 C17.08151722 12.02785778 14.63668383 11.84418791 10.84375 12.265625 C10.84375 16.555625 10.84375 20.845625 10.84375 25.265625 C18.10375 25.265625 25.36375 25.265625 32.84375 25.265625 C32.84375 20.975625 32.84375 16.685625 32.84375 12.265625 C31.73 12.141875 30.61625 12.018125 29.46875 11.890625 C25.84375 11.265625 25.84375 11.265625 23.84375 9.265625 C23.59375 5.765625 23.59375 5.765625 23.84375 2.265625 C26.41363681 -0.30426181 27.43285053 0.00855725 31 0 C32.53333984 -0.00386719 32.53333984 -0.00386719 34.09765625 -0.0078125 C35.16886719 -0.00007813 36.24007812 0.00765625 37.34375 0.015625 C38.95056641 0.00402344 38.95056641 0.00402344 40.58984375 -0.0078125 C41.61207031 -0.00523438 42.63429688 -0.00265625 43.6875 0 C45.09805664 0.00338379 45.09805664 0.00338379 46.53710938 0.00683594 C48.84375 0.265625 48.84375 0.265625 50.84375 2.265625 C51.09375 5.765625 51.09375 5.765625 50.84375 9.265625 C50.18375 9.925625 49.52375 10.585625 48.84375 11.265625 C47.19375 11.265625 45.54375 11.265625 43.84375 11.265625 C43.84375 24.795625 43.84375 38.325625 43.84375 52.265625 C45.49375 52.265625 47.14375 52.265625 48.84375 52.265625 C50.84375 54.265625 50.84375 54.265625 51.09375 57.765625 C50.84375 61.265625 50.84375 61.265625 48.84375 63.265625 C46.53710938 63.52441406 46.53710938 63.52441406 43.6875 63.53125 C42.15416016 63.53511719 42.15416016 63.53511719 40.58984375 63.5390625 C39.51863281 63.53132813 38.44742188 63.52359375 37.34375 63.515625 C35.73693359 63.52722656 35.73693359 63.52722656 34.09765625 63.5390625 C33.07542969 63.53648438 32.05320312 63.53390625 31 63.53125 C30.05962891 63.52899414 29.11925781 63.52673828 28.15039062 63.52441406 C25.84375 63.265625 25.84375 63.265625 23.84375 61.265625 C23.59375 57.765625 23.59375 57.765625 23.84375 54.265625 C24.50375 53.605625 25.16375 52.945625 25.84375 52.265625 C28.15375 52.265625 30.46375 52.265625 32.84375 52.265625 C32.84375 47.315625 32.84375 42.365625 32.84375 37.265625 C25.58375 37.265625 18.32375 37.265625 10.84375 37.265625 C10.84375 42.215625 10.84375 47.165625 10.84375 52.265625 C13.15375 52.265625 15.46375 52.265625 17.84375 52.265625 C19.84375 54.265625 19.84375 54.265625 20.09375 57.765625 C19.84375 61.265625 19.84375 61.265625 17.84375 63.265625 C15.53710938 63.52441406 15.53710938 63.52441406 12.6875 63.53125 C11.15416016 63.53511719 11.15416016 63.53511719 9.58984375 63.5390625 C8.51863281 63.53132813 7.44742188 63.52359375 6.34375 63.515625 C4.73693359 63.52722656 4.73693359 63.52722656 3.09765625 63.5390625 C2.07542969 63.53648438 1.05320312 63.53390625 0 63.53125 C-0.94037109 63.52899414 -1.88074219 63.52673828 -2.84960938 63.52441406 C-5.15625 63.265625 -5.15625 63.265625 -7.15625 61.265625 C-7.40625 57.765625 -7.40625 57.765625 -7.15625 54.265625 C-6.49625 53.605625 -5.83625 52.945625 -5.15625 52.265625 C-3.50625 52.265625 -1.85625 52.265625 -0.15625 52.265625 C-0.15625 38.735625 -0.15625 25.205625 -0.15625 11.265625 C-1.80625 11.265625 -3.45625 11.265625 -5.15625 11.265625 C-7.15625 9.265625 -7.15625 9.265625 -7.40625 5.765625 C-7.00810073 0.19153516 -5.0462919 0.01210557 0 0 Z " fill="#000000" transform="translate(696.15625,33.734375)"/>
<path d="M0 0 C15.84 0 31.68 0 48 0 C48 5.28 48 10.56 48 16 C42.72 16 37.44 16 32 16 C32 21.28 32 26.56 32 32 C21.44 32 10.88 32 0 32 C0 37.28 0 42.56 0 48 C5.28 48 10.56 48 16 48 C16 53.28 16 58.56 16 64 C5.44 64 -5.12 64 -16 64 C-16 48.16 -16 32.32 -16 16 C-10.72 16 -5.44 16 0 16 C0 10.72 0 5.44 0 0 Z " fill="#02B5C5" transform="translate(126,48)"/>
<path d="M0 0 C0.66 -0.66 1.32 -1.32 2 -2 C5.5 -2.25 5.5 -2.25 9 -2 C11.61815739 0.61815739 11.26112488 2.50468338 11.2734375 6.07226562 C11.26570312 6.85279297 11.25796875 7.63332031 11.25 8.4375 C11.26160156 9.60249023 11.26160156 9.60249023 11.2734375 10.79101562 C11.25996806 14.70052168 11.21368645 16.67947032 9 20 C5.94966807 20.69457273 3.06245371 20.61249074 0 20 C-2.26180049 17.38479318 -2.91269033 15.26192902 -4 12 C-9.37539323 9.13503997 -15.07536248 9.49355202 -21 10 C-26.26393465 11.691979 -28.4360101 14.1467334 -31 19 C-33.89855649 26.95456127 -34.09067479 36.06120789 -31 44 C-26.92781646 49.03664807 -22.56678045 50.00152999 -16.2578125 50.86328125 C-11.01635523 51.08324648 -6.09178307 50.17363794 -1 49 C-0.67 47.02 -0.34 45.04 0 43 C-0.71285156 43.02320313 -1.42570313 43.04640625 -2.16015625 43.0703125 C-7.87336699 43.17796385 -12.62425783 42.98668732 -18 41 C-19 40 -19 40 -19.1875 36.5625 C-19 33 -19 33 -17 31 C-13.95898438 30.74121094 -13.95898438 30.74121094 -10.09375 30.734375 C-9.07299377 30.73150482 -9.07299377 30.73150482 -8.03161621 30.72857666 C-6.59252554 30.72721537 -5.15342256 30.73090795 -3.71435547 30.73925781 C-1.50850913 30.74995872 0.69652281 30.73936128 2.90234375 30.7265625 C4.29948097 30.72788411 5.69661768 30.73044652 7.09375 30.734375 C8.36927734 30.73663086 9.64480469 30.73888672 10.95898438 30.74121094 C14 31 14 31 16 33 C16.25 36.5 16.25 36.5 16 40 C15.34 40.66 14.68 41.32 14 42 C13.01 42 12.02 42 11 42 C11 46.95 11 51.9 11 57 C-1.24841075 63.28536867 -14.07783164 65.55858947 -27.75 61.8125 C-30 60.953125 -30 60.953125 -32 60 C-32.9590625 59.55914062 -32.9590625 59.55914062 -33.9375 59.109375 C-39.23964849 56.04692716 -42.6098043 50.934955 -44.49755859 45.18115234 C-46.88953312 34.7973329 -47.00270329 21.72222062 -42.5 11.9375 C-38.43619935 5.45068205 -32.90334352 -0.19492415 -25.46484375 -2.56640625 C-16.70870707 -4.10670922 -8.02936722 -3.93275129 0 0 Z " fill="#000000" transform="translate(668,160)"/>
<path d="M0 0 C0.79470703 -0.00902847 1.58941406 -0.01805695 2.40820312 -0.02735901 C4.09615302 -0.04188858 5.78415957 -0.05075495 7.47216797 -0.05444336 C10.02542068 -0.06623501 12.57617175 -0.11529741 15.12890625 -0.16601562 C25.70758149 -0.27301193 33.31632863 0.52409972 41.68359375 7.58203125 C42.28300781 8.29617187 42.88242187 9.0103125 43.5 9.74609375 C44.42619141 10.80957031 44.42619141 10.80957031 45.37109375 11.89453125 C50.02082961 18.70268953 50.53573429 24.22609489 50.4375 32.30859375 C50.44910156 33.25927734 50.46070313 34.20996094 50.47265625 35.18945312 C50.43872372 43.39546966 48.98642967 50.28261047 43.0625 56.37109375 C36.10485526 62.33974659 29.31208106 63.68399902 20.35546875 63.63671875 C19.14556023 63.63958893 19.14556023 63.63958893 17.91120911 63.64251709 C16.21953008 63.64386993 14.52784035 63.64023688 12.83618164 63.63183594 C10.24016339 63.62105289 7.64482609 63.63179737 5.04882812 63.64453125 C3.40104014 63.64321087 1.75325257 63.64065099 0.10546875 63.63671875 C-0.67157913 63.64076721 -1.44862701 63.64481567 -2.2492218 63.64898682 C-7.7075315 63.60106225 -7.7075315 63.60106225 -9.9375 61.37109375 C-10.1875 57.87109375 -10.1875 57.87109375 -9.9375 54.37109375 C-9.2775 53.71109375 -8.6175 53.05109375 -7.9375 52.37109375 C-5.9575 52.37109375 -3.9775 52.37109375 -1.9375 52.37109375 C-1.9375 38.84109375 -1.9375 25.31109375 -1.9375 11.37109375 C-3.9175 11.37109375 -5.8975 11.37109375 -7.9375 11.37109375 C-9.9375 9.37109375 -9.9375 9.37109375 -10.1875 5.87109375 C-9.70678583 -0.85890465 -5.5787552 0.03897312 0 0 Z M9.0625 12.37109375 C9.0625 25.57109375 9.0625 38.77109375 9.0625 52.37109375 C23.68605707 52.9319882 23.68605707 52.9319882 35.68359375 46.19140625 C39.82992207 40.71778303 39.4501055 33.54551619 38.6640625 27.01953125 C36.96952109 19.55914763 33.37946708 16.58240514 27.0625 12.37109375 C21.1225 12.37109375 15.1825 12.37109375 9.0625 12.37109375 Z " fill="#000000" transform="translate(430.9375,157.62890625)"/>
<path d="M0 0 C0.79470703 -0.00902847 1.58941406 -0.01805695 2.40820312 -0.02735901 C4.09615302 -0.04188858 5.78415957 -0.05075495 7.47216797 -0.05444336 C10.02542068 -0.06623501 12.57617175 -0.11529741 15.12890625 -0.16601562 C25.70758149 -0.27301193 33.31632863 0.52409972 41.68359375 7.58203125 C42.28300781 8.29617187 42.88242187 9.0103125 43.5 9.74609375 C44.42619141 10.80957031 44.42619141 10.80957031 45.37109375 11.89453125 C50.02082961 18.70268953 50.53573429 24.22609489 50.4375 32.30859375 C50.44910156 33.25927734 50.46070313 34.20996094 50.47265625 35.18945312 C50.43872372 43.39546966 48.98642967 50.28261047 43.0625 56.37109375 C36.10485526 62.33974659 29.31208106 63.68399902 20.35546875 63.63671875 C19.14556023 63.63958893 19.14556023 63.63958893 17.91120911 63.64251709 C16.21953008 63.64386993 14.52784035 63.64023688 12.83618164 63.63183594 C10.24016339 63.62105289 7.64482609 63.63179737 5.04882812 63.64453125 C3.40104014 63.64321087 1.75325257 63.64065099 0.10546875 63.63671875 C-0.67157913 63.64076721 -1.44862701 63.64481567 -2.2492218 63.64898682 C-7.7075315 63.60106225 -7.7075315 63.60106225 -9.9375 61.37109375 C-10.1875 57.87109375 -10.1875 57.87109375 -9.9375 54.37109375 C-9.2775 53.71109375 -8.6175 53.05109375 -7.9375 52.37109375 C-5.9575 52.37109375 -3.9775 52.37109375 -1.9375 52.37109375 C-1.9375 38.84109375 -1.9375 25.31109375 -1.9375 11.37109375 C-3.9175 11.37109375 -5.8975 11.37109375 -7.9375 11.37109375 C-9.9375 9.37109375 -9.9375 9.37109375 -10.1875 5.87109375 C-9.70678583 -0.85890465 -5.5787552 0.03897312 0 0 Z M9.0625 12.37109375 C9.0625 25.57109375 9.0625 38.77109375 9.0625 52.37109375 C23.68605707 52.9319882 23.68605707 52.9319882 35.68359375 46.19140625 C39.82992207 40.71778303 39.4501055 33.54551619 38.6640625 27.01953125 C36.96952109 19.55914763 33.37946708 16.58240514 27.0625 12.37109375 C21.1225 12.37109375 15.1825 12.37109375 9.0625 12.37109375 Z " fill="#000000" transform="translate(430.9375,33.62890625)"/>
<path d="M0 0 C1.2684375 0.7425 1.2684375 0.7425 2.5625 1.5 C3.2225 0.84 3.8825 0.18 4.5625 -0.5 C7.5625 -0.75 7.5625 -0.75 10.5625 -0.5 C12.97079792 1.90829792 12.81852579 2.49283556 12.828125 5.78125 C12.83199219 7.04388672 12.83199219 7.04388672 12.8359375 8.33203125 C12.82820312 9.21246094 12.82046875 10.09289062 12.8125 11 C12.82410156 12.32064453 12.82410156 12.32064453 12.8359375 13.66796875 C12.83335937 14.50972656 12.83078125 15.35148437 12.828125 16.21875 C12.82586914 16.99154297 12.82361328 17.76433594 12.82128906 18.56054688 C12.5625 20.5 12.5625 20.5 10.5625 22.5 C6.9375 22.625 6.9375 22.625 3.5625 22.5 C3.24796875 21.87351563 2.9334375 21.24703125 2.609375 20.6015625 C2.18140625 19.78429687 1.7534375 18.96703125 1.3125 18.125 C0.89484375 17.31289062 0.4771875 16.50078125 0.046875 15.6640625 C-1.64685038 13.19478918 -2.6174044 12.44341328 -5.4375 11.5 C-8.12045363 11.18476911 -8.12045363 11.18476911 -10.9375 11.25 C-12.34515625 11.24226562 -12.34515625 11.24226562 -13.78125 11.234375 C-16.54277175 11.51052718 -18.17783267 11.8933558 -20.4375 13.5 C-21.25620185 17.06206661 -21.25620185 17.06206661 -21.4375 20.5 C-16.1371015 24.30174113 -10.08170687 25.15932375 -3.83007812 26.51757812 C3.94831082 28.31796927 8.80470641 30.80384606 13.5625 37.5 C15.79109311 41.95718622 15.04803839 47.66195677 14.5625 52.5 C12.92194896 57.29610075 9.47963511 59.86262939 5.25 62.4375 C-2.91928557 66.14302923 -13.41477037 65.85432047 -21.8125 62.9375 C-23.00875 62.463125 -24.205 61.98875 -25.4375 61.5 C-26.4275 61.995 -26.4275 61.995 -27.4375 62.5 C-30.9375 62.6875 -30.9375 62.6875 -34.4375 62.5 C-36.80318222 60.13431778 -36.69321704 59.64767774 -36.703125 56.4375 C-36.70570313 55.64085937 -36.70828125 54.84421875 -36.7109375 54.0234375 C-36.70320312 53.19070312 -36.69546875 52.35796875 -36.6875 51.5 C-36.69523438 50.66726562 -36.70296875 49.83453125 -36.7109375 48.9765625 C-36.70835937 48.17992187 -36.70578125 47.38328125 -36.703125 46.5625 C-36.70086914 45.83160156 -36.69861328 45.10070312 -36.69628906 44.34765625 C-36.4375 42.5 -36.4375 42.5 -34.4375 40.5 C-31.1875 39.8125 -31.1875 39.8125 -27.4375 40.5 C-25.99609375 42.40625 -25.99609375 42.40625 -24.625 44.8125 C-22.399933 48.55438986 -20.84579718 50.27328973 -16.6875 51.6875 C-10.21067689 53.16707684 -4.59578599 51.552762 1.5625 49.5 C1.5625 47.19 1.5625 44.88 1.5625 42.5 C-4.19704711 39.27427962 -10.07989569 37.95340862 -16.44921875 36.48242188 C-23.86846603 34.66004715 -28.91819009 31.86051024 -33.4375 25.5 C-35.53044386 21.31411228 -34.86167949 16.0584359 -34.4375 11.5 C-31.87474728 6.07879231 -27.57636589 2.07767865 -22.20703125 -0.62109375 C-15.53586809 -2.73817656 -6.48754711 -2.81082637 0 0 Z " fill="#000000" transform="translate(927.4375,158.5)"/>
<path d="M0 0 C1.29194275 -0.01354271 1.29194275 -0.01354271 2.60998535 -0.02735901 C4.43917355 -0.04189031 6.26841406 -0.05075537 8.09765625 -0.05444336 C10.8681126 -0.06624381 13.6362706 -0.11531511 16.40625 -0.16601562 C35.30799847 -0.3402243 35.30799847 -0.3402243 43.06079102 6.9206543 C47.68427298 12.09411174 47.70100977 16.80219674 47.61328125 23.4296875 C47.22597058 28.93242214 45.08429197 31.93067184 41.15625 35.55859375 C31.87695485 42.97426477 21.71739611 42.51427281 10.40625 42.37109375 C10.40625 45.67109375 10.40625 48.97109375 10.40625 52.37109375 C11.61023438 52.34789062 12.81421875 52.3246875 14.0546875 52.30078125 C15.63020215 52.28202512 17.20572348 52.26382476 18.78125 52.24609375 C19.5753125 52.22933594 20.369375 52.21257812 21.1875 52.1953125 C23.26117015 52.17773902 25.33508241 52.26774207 27.40625 52.37109375 C29.40625 54.37109375 29.40625 54.37109375 29.65625 57.87109375 C29.40625 61.37109375 29.40625 61.37109375 27.40625 63.37109375 C24.70489677 63.57083108 22.10827789 63.65090948 19.40625 63.63671875 C18.61476563 63.6386322 17.82328125 63.64054565 17.0078125 63.64251709 C15.3333301 63.64387893 13.65883715 63.64018257 11.984375 63.63183594 C9.41642619 63.62113615 6.84917697 63.631731 4.28125 63.64453125 C2.65624845 63.64320965 1.03124734 63.64064726 -0.59375 63.63671875 C-1.75003906 63.64279144 -1.75003906 63.64279144 -2.9296875 63.64898682 C-8.36382868 63.60101507 -8.36382868 63.60101507 -10.59375 61.37109375 C-10.84375 57.87109375 -10.84375 57.87109375 -10.59375 54.37109375 C-9.93375 53.71109375 -9.27375 53.05109375 -8.59375 52.37109375 C-5.95375 52.37109375 -3.31375 52.37109375 -0.59375 52.37109375 C-0.59375 39.17109375 -0.59375 25.97109375 -0.59375 12.37109375 C-3.23375 12.04109375 -5.87375 11.71109375 -8.59375 11.37109375 C-10.59375 9.37109375 -10.59375 9.37109375 -10.84375 5.87109375 C-10.34614904 -1.09531966 -5.71697304 0.03679343 0 0 Z M10.40625 12.37109375 C10.40625 18.31109375 10.40625 24.25109375 10.40625 30.37109375 C22.61415913 30.81437952 22.61415913 30.81437952 33.53125 26.12109375 C35.59838356 23.48792239 35.59838356 23.48792239 35.96875 20.30859375 C35.28433796 16.73444198 34.25806131 15.57106247 31.40625 13.37109375 C28.64059618 12.44920914 27.02341298 12.25324153 24.17578125 12.2734375 C23.09067261 12.27718384 23.09067261 12.27718384 21.98364258 12.28100586 C20.61502075 12.29466187 20.61502075 12.29466187 19.21875 12.30859375 C16.310625 12.32921875 13.4025 12.34984375 10.40625 12.37109375 Z " fill="#000000" transform="translate(634.59375,33.62890625)"/>
<path d="M0 0 C8.06348116 4.72008653 13.76091758 10.30978091 16.90234375 19.29296875 C18.92191202 28.07809073 19.49912419 39.04609021 15.01171875 47.1171875 C14.59921875 47.74882812 14.18671875 48.38046875 13.76171875 49.03125 C13.34921875 49.72476563 12.93671875 50.41828125 12.51171875 51.1328125 C8.25338508 57.59289825 2.06013177 61.59844566 -5.23828125 64.03125 C-15.0089632 64.80758114 -22.87418319 64.75057397 -31.23828125 59.03125 C-32.16640625 58.4125 -33.09453125 57.79375 -34.05078125 57.15625 C-41.74032023 49.68641213 -44.50872241 41.75457921 -44.67578125 31.09375 C-44.60003407 21.02636709 -41.49985933 12.20071504 -34.23828125 5.03125 C-24.45432987 -1.97473078 -11.4988121 -5.38772975 0 0 Z M-28.05078125 17.03125 C-32.99132012 23.80684616 -33.12277301 29.7263379 -32.23828125 38.03125 C-31.12735257 41.31753204 -29.61234721 43.5236791 -27.23828125 46.03125 C-26.68011719 46.629375 -26.12195313 47.2275 -25.546875 47.84375 C-21.68934382 51.32277604 -18.42571736 52.49342252 -13.23828125 52.78125 C-7.03907855 52.43728415 -3.43420945 50.52757953 0.76171875 46.03125 C1.28894531 45.474375 1.81617188 44.9175 2.359375 44.34375 C6.36975077 39.16042309 6.49206011 33.76719923 6.24609375 27.37890625 C5.3301699 21.04869063 2.32363608 17.24167184 -2.36328125 13.09375 C-11.04028049 6.8689462 -21.31941182 9.32148385 -28.05078125 17.03125 Z " fill="#000000" transform="translate(533.23828125,158.96875)"/>
<path d="M0 0 C8.06348116 4.72008653 13.76091758 10.30978091 16.90234375 19.29296875 C18.92191202 28.07809073 19.49912419 39.04609021 15.01171875 47.1171875 C14.59921875 47.74882813 14.18671875 48.38046875 13.76171875 49.03125 C13.34921875 49.72476563 12.93671875 50.41828125 12.51171875 51.1328125 C8.25338508 57.59289825 2.06013177 61.59844566 -5.23828125 64.03125 C-15.0089632 64.80758114 -22.87418319 64.75057397 -31.23828125 59.03125 C-32.16640625 58.4125 -33.09453125 57.79375 -34.05078125 57.15625 C-41.74032023 49.68641213 -44.50872241 41.75457921 -44.67578125 31.09375 C-44.60003407 21.02636709 -41.49985933 12.20071504 -34.23828125 5.03125 C-24.45432987 -1.97473078 -11.4988121 -5.38772975 0 0 Z M-28.05078125 17.03125 C-32.99132012 23.80684616 -33.12277301 29.7263379 -32.23828125 38.03125 C-31.12735257 41.31753204 -29.61234721 43.5236791 -27.23828125 46.03125 C-26.68011719 46.629375 -26.12195313 47.2275 -25.546875 47.84375 C-21.68934382 51.32277604 -18.42571736 52.49342252 -13.23828125 52.78125 C-7.03907855 52.43728415 -3.43420945 50.52757953 0.76171875 46.03125 C1.28894531 45.474375 1.81617188 44.9175 2.359375 44.34375 C6.36975077 39.16042309 6.49206011 33.76719923 6.24609375 27.37890625 C5.3301699 21.04869063 2.32363608 17.24167184 -2.36328125 13.09375 C-11.04028049 6.8689462 -21.31941182 9.32148385 -28.05078125 17.03125 Z " fill="#000000" transform="translate(533.23828125,34.96875)"/>
<path d="M0 0 C15.84 0 31.68 0 48 0 C48 15.84 48 31.68 48 48 C37.44 48 26.88 48 16 48 C16 37.44 16 26.88 16 16 C10.72 16 5.44 16 0 16 C0 10.72 0 5.44 0 0 Z " fill="#02C0D0" transform="translate(206,80)"/>
<path d="M0 0 C10.56 0 21.12 0 32 0 C32 10.56 32 21.12 32 32 C37.28 32 42.56 32 48 32 C48 37.28 48 42.56 48 48 C37.44 48 26.88 48 16 48 C16 42.72 16 37.44 16 32 C5.44 32 -5.12 32 -16 32 C-16 26.72 -16 21.44 -16 16 C-10.72 16 -5.44 16 0 16 C0 10.72 0 5.44 0 0 Z " fill="#000000" transform="translate(190,16)"/>
<path d="M0 0 C1.12347839 0.00607269 1.12347839 0.00607269 2.26965332 0.01226807 C3.03894165 0.01035461 3.80822998 0.00844116 4.60083008 0.00646973 C6.22823412 0.00510799 7.85564902 0.00880368 9.48303223 0.01715088 C11.97855963 0.02785086 14.47336714 0.01725555 16.96887207 0.00445557 C18.54830075 0.00577716 20.12772898 0.00833956 21.70715332 0.01226807 C22.45613892 0.0082196 23.20512451 0.00417114 23.97680664 0 C29.25848089 0.04797064 29.25848089 0.04797064 31.48840332 2.27789307 C31.73840332 5.77789307 31.73840332 5.77789307 31.48840332 9.27789307 C29.48840332 11.27789307 29.48840332 11.27789307 17.48840332 12.27789307 C17.48840332 25.47789307 17.48840332 38.67789307 17.48840332 52.27789307 C25.40840332 52.27789307 33.32840332 52.27789307 41.48840332 52.27789307 C41.40937037 47.10214505 41.40937037 47.10214505 41.30822754 41.92681885 C41.29363115 40.04294257 41.3889685 38.15919995 41.48840332 36.27789307 C43.48840332 34.27789307 43.48840332 34.27789307 46.98840332 34.02789307 C50.48840332 34.27789307 50.48840332 34.27789307 52.48840332 36.27789307 C52.7154541 38.98345947 52.7154541 38.98345947 52.68371582 42.37945557 C52.67727051 43.59117432 52.6708252 44.80289307 52.66418457 46.05133057 C52.64742676 47.32234619 52.63066895 48.59336182 52.61340332 49.90289307 C52.60437988 51.18164307 52.59535645 52.46039307 52.58605957 53.77789307 C52.56242635 56.94474474 52.52947961 60.1112273 52.48840332 63.27789307 C44.96071552 63.32418597 37.43304244 63.35974671 29.90524483 63.38151741 C26.40996405 63.39196504 22.91478049 63.4061419 19.41955566 63.42877197 C15.40343276 63.45461259 11.38741235 63.46435772 7.37121582 63.47320557 C5.48368088 63.48868942 5.48368088 63.48868942 3.55801392 63.50448608 C2.39696136 63.50463715 1.23590881 63.50478821 0.03967285 63.50494385 C-0.98624969 63.50938507 -2.01217224 63.51382629 -3.06918335 63.5184021 C-5.51159668 63.27789307 -5.51159668 63.27789307 -7.51159668 61.27789307 C-7.76159668 57.77789307 -7.76159668 57.77789307 -7.51159668 54.27789307 C-6.85159668 53.61789307 -6.19159668 52.95789307 -5.51159668 52.27789307 C-1.55159668 52.27789307 2.40840332 52.27789307 6.48840332 52.27789307 C6.48840332 39.07789307 6.48840332 25.87789307 6.48840332 12.27789307 C2.52840332 11.94789307 -1.43159668 11.61789307 -5.51159668 11.27789307 C-7.51159668 9.27789307 -7.51159668 9.27789307 -7.76159668 5.77789307 C-7.35214171 0.04552345 -5.23798688 0.04757385 0 0 Z " fill="#000000" transform="translate(695.5115966796875,157.72210693359375)"/>
<path d="M0 0 C1.12347839 0.00607269 1.12347839 0.00607269 2.26965332 0.01226807 C3.03894165 0.01035461 3.80822998 0.00844116 4.60083008 0.00646973 C6.22823412 0.00510799 7.85564902 0.00880368 9.48303223 0.01715088 C11.97855963 0.02785086 14.47336714 0.01725555 16.96887207 0.00445557 C18.54830075 0.00577716 20.12772898 0.00833956 21.70715332 0.01226807 C22.45613892 0.0082196 23.20512451 0.00417114 23.97680664 0 C29.25848089 0.04797064 29.25848089 0.04797064 31.48840332 2.27789307 C31.73840332 5.77789307 31.73840332 5.77789307 31.48840332 9.27789307 C29.48840332 11.27789307 29.48840332 11.27789307 17.48840332 12.27789307 C17.48840332 25.47789307 17.48840332 38.67789307 17.48840332 52.27789307 C25.40840332 52.27789307 33.32840332 52.27789307 41.48840332 52.27789307 C41.40937037 47.10214505 41.40937037 47.10214505 41.30822754 41.92681885 C41.29363115 40.04294257 41.3889685 38.15919995 41.48840332 36.27789307 C43.48840332 34.27789307 43.48840332 34.27789307 46.98840332 34.02789307 C50.48840332 34.27789307 50.48840332 34.27789307 52.48840332 36.27789307 C52.7154541 38.98345947 52.7154541 38.98345947 52.68371582 42.37945557 C52.67727051 43.59117432 52.6708252 44.80289307 52.66418457 46.05133057 C52.64742676 47.32234619 52.63066895 48.59336182 52.61340332 49.90289307 C52.60437988 51.18164307 52.59535645 52.46039307 52.58605957 53.77789307 C52.56242635 56.94474474 52.52947961 60.1112273 52.48840332 63.27789307 C44.96071552 63.32418597 37.43304244 63.35974671 29.90524483 63.38151741 C26.40996405 63.39196504 22.91478049 63.4061419 19.41955566 63.42877197 C15.40343276 63.45461259 11.38741235 63.46435772 7.37121582 63.47320557 C5.48368088 63.48868942 5.48368088 63.48868942 3.55801392 63.50448608 C2.39696136 63.50463715 1.23590881 63.50478821 0.03967285 63.50494385 C-0.98624969 63.50938507 -2.01217224 63.51382629 -3.06918335 63.5184021 C-5.51159668 63.27789307 -5.51159668 63.27789307 -7.51159668 61.27789307 C-7.76159668 57.77789307 -7.76159668 57.77789307 -7.51159668 54.27789307 C-6.85159668 53.61789307 -6.19159668 52.95789307 -5.51159668 52.27789307 C-1.55159668 52.27789307 2.40840332 52.27789307 6.48840332 52.27789307 C6.48840332 39.07789307 6.48840332 25.87789307 6.48840332 12.27789307 C2.52840332 11.94789307 -1.43159668 11.61789307 -5.51159668 11.27789307 C-7.51159668 9.27789307 -7.51159668 9.27789307 -7.76159668 5.77789307 C-7.35214171 0.04552345 -5.23798688 0.04757385 0 0 Z " fill="#000000" transform="translate(563.5115966796875,33.72210693359375)"/>
<path d="M0 0 C0.89432739 -0.00630432 1.78865479 -0.01260864 2.71008301 -0.019104 C4.16166809 -0.01303131 4.16166809 -0.01303131 5.64257812 -0.00683594 C6.6338269 -0.00874939 7.62507568 -0.01066284 8.6463623 -0.01263428 C10.7445501 -0.01399679 12.84274631 -0.01029576 14.94091797 -0.00195312 C18.16067358 0.00874535 21.37987121 -0.0018463 24.59960938 -0.01464844 C26.63476686 -0.01332685 28.669924 -0.01076449 30.70507812 -0.00683594 C31.67280151 -0.0108844 32.6405249 -0.01493286 33.63757324 -0.019104 C34.53190063 -0.01279968 35.42622803 -0.00649536 36.34765625 0 C37.13660278 0.00159119 37.92554932 0.00318237 38.73840332 0.00482178 C40.67382812 0.25878906 40.67382812 0.25878906 42.67382812 2.25878906 C42.92382812 5.75878906 42.92382812 5.75878906 42.67382812 9.25878906 C39.9790632 11.95355399 38.48113886 11.85801951 34.67382812 12.25878906 C31.04382813 12.25878906 27.41382813 12.25878906 23.67382812 12.25878906 C23.67382812 25.45878906 23.67382812 38.65878906 23.67382812 52.25878906 C29.28382813 52.25878906 34.89382813 52.25878906 40.67382812 52.25878906 C42.67382812 54.25878906 42.67382812 54.25878906 42.92382812 57.75878906 C42.67382812 61.25878906 42.67382812 61.25878906 40.67382812 63.25878906 C38.73840332 63.51275635 38.73840332 63.51275635 36.34765625 63.51757812 C35.45332886 63.52388245 34.55900146 63.53018677 33.63757324 63.53668213 C32.66984985 63.53263367 31.70212646 63.52858521 30.70507812 63.52441406 C29.21820496 63.52728424 29.21820496 63.52728424 27.70129395 63.5302124 C25.60310615 63.53157492 23.50490994 63.52787388 21.40673828 63.51953125 C18.18698267 63.50883277 14.96778504 63.51942442 11.74804688 63.53222656 C9.71288939 63.53090498 7.67773225 63.52834261 5.64257812 63.52441406 C4.19099304 63.53048676 4.19099304 63.53048676 2.71008301 63.53668213 C1.81575562 63.53037781 0.92142822 63.52407349 0 63.51757812 C-0.78894653 63.51598694 -1.57789307 63.51439575 -2.39074707 63.51275635 C-4.32617188 63.25878906 -4.32617188 63.25878906 -6.32617188 61.25878906 C-6.57617188 57.75878906 -6.57617188 57.75878906 -6.32617188 54.25878906 C-5.66617188 53.59878906 -5.00617187 52.93878906 -4.32617188 52.25878906 C1.28382813 52.25878906 6.89382813 52.25878906 12.67382812 52.25878906 C12.67382812 39.05878906 12.67382812 25.85878906 12.67382812 12.25878906 C9.04382813 12.25878906 5.41382813 12.25878906 1.67382812 12.25878906 C-4.79676011 10.78820083 -4.79676011 10.78820083 -6.32617188 9.25878906 C-6.51367188 5.82128906 -6.51367188 5.82128906 -6.32617188 2.25878906 C-3.90230842 -0.16507439 -3.31555775 0.00668698 0 0 Z " fill="#000000" transform="translate(765.326171875,33.7412109375)"/>
<path d="M0 0 C5.28 0 10.56 0 16 0 C16 5.28 16 10.56 16 16 C21.28 16 26.56 16 32 16 C32 21.28 32 26.56 32 32 C26.72 32 21.44 32 16 32 C16 37.28 16 42.56 16 48 C5.44 48 -5.12 48 -16 48 C-16 42.72 -16 37.44 -16 32 C-10.72 32 -5.44 32 0 32 C0 21.44 0 10.88 0 0 Z " fill="#000000" transform="translate(206,128)"/>
<path d="M0 0 C5.28 0 10.56 0 16 0 C16 15.84 16 31.68 16 48 C5.44 48 -5.12 48 -16 48 C-16 42.72 -16 37.44 -16 32 C-10.72 32 -5.44 32 0 32 C0 21.44 0 10.88 0 0 Z " fill="#000000" transform="translate(238,160)"/>
<path d="M0 0 C10.56 0 21.12 0 32 0 C32 10.56 32 21.12 32 32 C26.72 32 21.44 32 16 32 C16 26.72 16 21.44 16 16 C10.72 16 5.44 16 0 16 C0 10.72 0 5.44 0 0 Z " fill="#02C0D0" transform="translate(206,208)"/>
<path d="M0 0 C5.28 0 10.56 0 16 0 C16 15.84 16 31.68 16 48 C10.72 48 5.44 48 0 48 C0 32.16 0 16.32 0 0 Z " fill="#000000" transform="translate(286,128)"/>
<path d="M0 0 C10.56 0 21.12 0 32 0 C32 10.56 32 21.12 32 32 C26.72 32 21.44 32 16 32 C16 26.72 16 21.44 16 16 C10.72 16 5.44 16 0 16 C0 10.72 0 5.44 0 0 Z " fill="#02CBDA" transform="translate(222,128)"/>
<path d="M0 0 C5.28 0 10.56 0 16 0 C16 5.28 16 10.56 16 16 C21.28 16 26.56 16 32 16 C32 21.28 32 26.56 32 32 C21.44 32 10.88 32 0 32 C0 21.44 0 10.88 0 0 Z " fill="#02C0D0" transform="translate(110,80)"/>
<path d="M0 0 C10.56 0 21.12 0 32 0 C32 10.56 32 21.12 32 32 C26.72 32 21.44 32 16 32 C16 26.72 16 21.44 16 16 C10.72 16 5.44 16 0 16 C0 10.72 0 5.44 0 0 Z " fill="#F5F2EE" transform="translate(126,80)"/>
<path d="M0 0 C5.28 0 10.56 0 16 0 C16 10.56 16 21.12 16 32 C5.44 32 -5.12 32 -16 32 C-16 26.72 -16 21.44 -16 16 C-10.72 16 -5.44 16 0 16 C0 10.72 0 5.44 0 0 Z " fill="#000000" transform="translate(94,80)"/>
<path d="M0 0 C15.84 0 31.68 0 48 0 C48 5.28 48 10.56 48 16 C32.16 16 16.32 16 0 16 C0 10.72 0 5.44 0 0 Z " fill="#02B5C5" transform="translate(206,64)"/>
<path d="M0 0 C15.84 0 31.68 0 48 0 C48 5.28 48 10.56 48 16 C32.16 16 16.32 16 0 16 C0 10.72 0 5.44 0 0 Z " fill="#000000" transform="translate(126,48)"/>
<path d="M0 0 C5.28 0 10.56 0 16 0 C16 10.56 16 21.12 16 32 C10.72 32 5.44 32 0 32 C0 21.44 0 10.88 0 0 Z " fill="#000000" transform="translate(254,208)"/>
<path d="M0 0 C5.28 0 10.56 0 16 0 C16 10.56 16 21.12 16 32 C10.72 32 5.44 32 0 32 C0 21.44 0 10.88 0 0 Z " fill="#000000" transform="translate(270,176)"/>
<path d="M0 0 C10.56 0 21.12 0 32 0 C32 5.28 32 10.56 32 16 C21.44 16 10.88 16 0 16 C0 10.72 0 5.44 0 0 Z " fill="#F5F2EE" transform="translate(190,112)"/>
<path d="M0 0 C10.56 0 21.12 0 32 0 C32 5.28 32 10.56 32 16 C21.44 16 10.88 16 0 16 C0 10.72 0 5.44 0 0 Z " fill="#02A8BA" transform="translate(62,112)"/>
<path d="M0 0 C5.28 0 10.56 0 16 0 C16 10.56 16 21.12 16 32 C10.72 32 5.44 32 0 32 C0 21.44 0 10.88 0 0 Z " fill="#000000" transform="translate(270,96)"/>
<path d="M0 0 C10.56 0 21.12 0 32 0 C32 5.28 32 10.56 32 16 C21.44 16 10.88 16 0 16 C0 10.72 0 5.44 0 0 Z " fill="#02A8BA" transform="translate(174,32)"/>
<path d="M0 0 C5.28 0 10.56 0 16 0 C16 5.28 16 10.56 16 16 C10.72 16 5.44 16 0 16 C0 10.72 0 5.44 0 0 Z " fill="#000000" transform="translate(238,240)"/>
<path d="M0 0 C5.28 0 10.56 0 16 0 C16 5.28 16 10.56 16 16 C10.72 16 5.44 16 0 16 C0 10.72 0 5.44 0 0 Z " fill="#000000" transform="translate(222,224)"/>
<path d="M0 0 C5.28 0 10.56 0 16 0 C16 5.28 16 10.56 16 16 C10.72 16 5.44 16 0 16 C0 10.72 0 5.44 0 0 Z " fill="#02CBDA" transform="translate(238,208)"/>
<path d="M0 0 C5.28 0 10.56 0 16 0 C16 5.28 16 10.56 16 16 C10.72 16 5.44 16 0 16 C0 10.72 0 5.44 0 0 Z " fill="#000000" transform="translate(206,208)"/>
<path d="M0 0 C5.28 0 10.56 0 16 0 C16 5.28 16 10.56 16 16 C10.72 16 5.44 16 0 16 C0 10.72 0 5.44 0 0 Z " fill="#000000" transform="translate(142,160)"/>
<path d="M0 0 C5.28 0 10.56 0 16 0 C16 5.28 16 10.56 16 16 C10.72 16 5.44 16 0 16 C0 10.72 0 5.44 0 0 Z " fill="#F5F2EE" transform="translate(238,144)"/>
<path d="M0 0 C5.28 0 10.56 0 16 0 C16 5.28 16 10.56 16 16 C10.72 16 5.44 16 0 16 C0 10.72 0 5.44 0 0 Z " fill="#02B5C5" transform="translate(190,144)"/>
<path d="M0 0 C5.28 0 10.56 0 16 0 C16 5.28 16 10.56 16 16 C10.72 16 5.44 16 0 16 C0 10.72 0 5.44 0 0 Z " fill="#02B5C5" transform="translate(142,144)"/>
<path d="M0 0 C5.28 0 10.56 0 16 0 C16 5.28 16 10.56 16 16 C10.72 16 5.44 16 0 16 C0 10.72 0 5.44 0 0 Z " fill="#02B5C5" transform="translate(270,128)"/>
<path d="M0 0 C5.28 0 10.56 0 16 0 C16 5.28 16 10.56 16 16 C10.72 16 5.44 16 0 16 C0 10.72 0 5.44 0 0 Z " fill="#02C0D0" transform="translate(254,128)"/>
<path d="M0 0 C5.28 0 10.56 0 16 0 C16 5.28 16 10.56 16 16 C10.72 16 5.44 16 0 16 C0 10.72 0 5.44 0 0 Z " fill="#F5F2EE" transform="translate(222,128)"/>
<path d="M0 0 C5.28 0 10.56 0 16 0 C16 5.28 16 10.56 16 16 C10.72 16 5.44 16 0 16 C0 10.72 0 5.44 0 0 Z " fill="#02B5C5" transform="translate(174,128)"/>
<path d="M0 0 C5.28 0 10.56 0 16 0 C16 5.28 16 10.56 16 16 C10.72 16 5.44 16 0 16 C0 10.72 0 5.44 0 0 Z " fill="#02CBDA" transform="translate(222,112)"/>
<path d="M0 0 C5.28 0 10.56 0 16 0 C16 5.28 16 10.56 16 16 C10.72 16 5.44 16 0 16 C0 10.72 0 5.44 0 0 Z " fill="#02C0D0" transform="translate(174,112)"/>
<path d="M0 0 C5.28 0 10.56 0 16 0 C16 5.28 16 10.56 16 16 C10.72 16 5.44 16 0 16 C0 10.72 0 5.44 0 0 Z " fill="#02B5C5" transform="translate(94,112)"/>
<path d="M0 0 C5.28 0 10.56 0 16 0 C16 5.28 16 10.56 16 16 C10.72 16 5.44 16 0 16 C0 10.72 0 5.44 0 0 Z " fill="#000000" transform="translate(62,112)"/>
<path d="M0 0 C5.28 0 10.56 0 16 0 C16 5.28 16 10.56 16 16 C10.72 16 5.44 16 0 16 C0 10.72 0 5.44 0 0 Z " fill="#000059" transform="translate(126,96)"/>
<path d="M0 0 C5.28 0 10.56 0 16 0 C16 5.28 16 10.56 16 16 C10.72 16 5.44 16 0 16 C0 10.72 0 5.44 0 0 Z " fill="#000000" transform="translate(254,80)"/>
<path d="M0 0 C5.28 0 10.56 0 16 0 C16 5.28 16 10.56 16 16 C10.72 16 5.44 16 0 16 C0 10.72 0 5.44 0 0 Z " fill="#02B5C5" transform="translate(238,80)"/>
<path d="M0 0 C5.28 0 10.56 0 16 0 C16 5.28 16 10.56 16 16 C10.72 16 5.44 16 0 16 C0 10.72 0 5.44 0 0 Z " fill="#02B5C5" transform="translate(110,80)"/>
<path d="M0 0 C5.28 0 10.56 0 16 0 C16 5.28 16 10.56 16 16 C10.72 16 5.44 16 0 16 C0 10.72 0 5.44 0 0 Z " fill="#000000" transform="translate(238,64)"/>
<path d="M0 0 C5.28 0 10.56 0 16 0 C16 5.28 16 10.56 16 16 C10.72 16 5.44 16 0 16 C0 10.72 0 5.44 0 0 Z " fill="#000000" transform="translate(110,64)"/>
<path d="M0 0 C5.28 0 10.56 0 16 0 C16 5.28 16 10.56 16 16 C10.72 16 5.44 16 0 16 C0 10.72 0 5.44 0 0 Z " fill="#02B5C5" transform="translate(174,48)"/>
<path d="M0 0 C5.28 0 10.56 0 16 0 C16 5.28 16 10.56 16 16 C10.72 16 5.44 16 0 16 C0 10.72 0 5.44 0 0 Z " fill="#000000" transform="translate(174,32)"/>
</svg>
